Coordinates
version=1
nRows=30
nColumns=38
inDegrees=no

Units are S.I. units (second, meters, Newtons, ...)
If the header above contains a line with 'inDegrees', this indicates whether rotational values are in degrees (yes) or radians (no).

endheader
time	pelvis_tilt	pelvis_list	pelvis_rotation	pelvis_tx	pelvis_ty	pelvis_tz	hip_flexion_r	hip_adduction_r	hip_rotation_r	knee_angle_r	ankle_angle_r	subtalar_angle_r	mtp_angle_r	hip_flexion_l	hip_adduction_l	hip_rotation_l	knee_angle_l	ankle_angle_l	subtalar_angle_l	mtp_angle_l	lumbar_extension	lumbar_bending	lumbar_rotation	arm_flex_r	arm_add_r	arm_rot_r	elbow_flex_r	pro_sup_r	wrist_flex_r	wrist_dev_r	arm_flex_l	arm_add_l	arm_rot_l	elbow_flex_l	pro_sup_l	wrist_flex_l	wrist_dev_l
0	0.358462	1.38331	-1.89044	0.835103	1.30201	1.06059	0.328496	-0.0980727	-0.0556881	0.972124	-0.122425	0	0	-0.262973	0.123724	-0.237311	0.242955	-0.157986	0	0	-0.154855	-0.0624742	-0.625848	0.182349	-0.170694	0.560786	0.0422934	0.203094	0	0	-0.701777	-0.646989	-0.0603349	0.878206	1.14354	0	0
0.01	0.387673	1.39384	-1.91962	0.83516	1.29235	1.05871	0.353724	-0.102834	-0.0632332	0.942483	-0.120571	0	0	-0.262876	0.126208	-0.23177	0.238204	-0.155182	0	0	-0.129681	-0.0703921	-0.641234	0.183356	-0.166297	0.561792	0.0401481	0.215673	0	0	-0.718124	-0.647005	-0.0793947	0.884854	1.14488	0	0
0.02	0.393243	1.40183	-1.92574	0.835196	1.28304	1.05777	0.364542	-0.0950041	-0.0533599	0.891775	-0.116149	0	0	-0.267107	0.125655	-0.224095	0.231478	-0.154001	0	0	-0.131408	-0.0623153	-0.617692	0.17803	-0.170482	0.534101	0.0449616	0.230584	0	0	-0.691605	-0.667	-0.0774408	0.894974	1.1605	0	0
0.03	0.387411	1.40756	-1.92122	0.835327	1.27349	1.05668	0.369518	-0.0870012	-0.0459898	0.835755	-0.111825	0	0	-0.273878	0.12367	-0.222063	0.226879	-0.151441	0	0	-0.120081	-0.0617649	-0.629879	0.18163	-0.168264	0.54605	0.0472126	0.22743	0	0	-0.701377	-0.668783	-0.0906467	0.900623	1.15931	0	0
0.04	0.418545	1.41957	-1.95012	0.835002	1.26386	1.05605	0.381178	-0.0838574	-0.0445407	0.776015	-0.110484	0	0	-0.271779	0.124377	-0.207404	0.221441	-0.151	0	0	-0.160232	-0.0364818	-0.515935	0.142833	-0.197125	0.508016	0.080549	0.18702	0	0	-0.571076	-0.737319	-0.0120935	0.919931	1.18975	0	0
0.05	0.399829	1.42096	-1.9329	0.83521	1.254	1.05481	0.380437	-0.0797313	-0.0500312	0.720869	-0.109107	0	0	-0.284293	0.121873	-0.209221	0.216561	-0.147416	0	0	-0.139838	-0.0407415	-0.557148	0.155585	-0.190535	0.529446	0.0803157	0.183361	0	0	-0.61438	-0.725794	-0.0460163	0.921176	1.18922	0	0
0.06	0.402361	1.42635	-1.93594	0.835161	1.24394	1.05343	0.384129	-0.0770175	-0.0564145	0.666583	-0.107817	0	0	-0.290844	0.1204	-0.208715	0.213649	-0.144503	0	0	-0.132627	-0.0388293	-0.559761	0.157656	-0.18947	0.538112	0.0800199	0.179754	0	0	-0.613397	-0.730601	-0.0519761	0.925682	1.19329	0	0
0.07	0.393351	1.42961	-1.92645	0.835267	1.2338	1.05216	0.38265	-0.0742969	-0.0671087	0.60989	-0.10931	0	0	-0.300585	0.117877	-0.208008	0.210237	-0.140625	0	0	-0.123645	-0.0378438	-0.573688	0.162927	-0.186727	0.55306	0.0789756	0.176632	0	0	-0.623477	-0.729231	-0.066105	0.927953	1.19922	0	0
0.08	0.388898	1.43276	-1.91944	0.83533	1.22371	1.05118	0.379885	-0.0729562	-0.0806669	0.55438	-0.117025	0	0	-0.310092	0.115599	-0.202421	0.206347	-0.138163	0	0	-0.132062	-0.0298459	-0.554289	0.161219	-0.186699	0.490108	0.0773208	0.230146	0	0	-0.594736	-0.736894	-0.0719486	0.934197	1.23369	0	0
0.09	0.419041	1.44085	-1.94468	0.835079	1.21339	1.05016	0.383672	-0.0743435	-0.0943522	0.503779	-0.123167	0	0	-0.312036	0.114938	-0.19101	0.203975	-0.137935	0	0	-0.15488	-0.0184178	-0.489125	0.118363	-0.224703	0.577097	0.146093	0.0715234	0	0	-0.508415	-0.779984	-0.00412456	0.947725	1.24239	0	0
0.1	0.379808	1.43773	-1.90387	0.835452	1.20302	1.04861	0.374457	-0.0721603	-0.109938	0.462167	-0.12241	0	0	-0.328862	0.109678	-0.197144	0.203563	-0.132666	0	0	-0.127806	-0.0244976	-0.561035	0.159828	-0.189681	0.526852	0.0887851	0.191152	0	0	-0.586883	-0.74944	-0.0688612	0.94108	1.23448	0	0
0.11	0.367887	1.43914	-1.88842	0.835518	1.19233	1.04704	0.372468	-0.0715639	-0.123923	0.431132	-0.119478	0	0	-0.339294	0.105319	-0.198122	0.203736	-0.129095	0	0	-0.114986	-0.0263762	-0.590058	0.169332	-0.182844	0.555449	0.0815974	0.184726	0	0	-0.612984	-0.74	-0.0904312	0.940133	1.23341	0	0
0.12	0.374862	1.44346	-1.89039	0.835361	1.18161	1.04554	0.375415	-0.0717042	-0.131914	0.411186	-0.116296	0	0	-0.344613	0.101733	-0.195698	0.205902	-0.127558	0	0	-0.117018	-0.0215664	-0.580668	0.165638	-0.185166	0.55745	0.0840535	0.17774	0	0	-0.594845	-0.749446	-0.0817295	0.945118	1.2355	0	0
0.13	0.377986	1.4473	-1.88573	0.835314	1.17092	1.04434	0.376149	-0.0717252	-0.139705	0.394287	-0.11343	0	0	-0.349684	0.0968577	-0.189643	0.209637	-0.125398	0	0	-0.127691	-0.0131848	-0.55779	0.155929	-0.191946	0.552401	0.0930614	0.165344	0	0	-0.55803	-0.766378	-0.0587058	0.952341	1.2418	0	0
0.14	0.344695	1.44596	-1.84661	0.83545	1.16016	1.04319	0.370464	-0.0685644	-0.145637	0.384479	-0.110569	0	0	-0.362104	0.0897443	-0.190053	0.212745	-0.121666	0	0	-0.124823	-0.0105946	-0.57498	0.157531	-0.19213	0.560571	0.0998735	0.155906	0	0	-0.56967	-0.765423	-0.0643697	0.953709	1.24727	0	0
0.15	0.316238	1.44646	-1.81279	0.835465	1.14914	1.04189	0.368179	-0.064992	-0.147483	0.384952	-0.106543	0	0	-0.371458	0.0823833	-0.192784	0.218446	-0.115478	0	0	-0.120131	-0.00749825	-0.591741	0.169565	-0.178506	0.452998	0.0789424	0.279868	0	0	-0.582469	-0.75752	-0.080422	0.954721	1.25756	0	0
0.16	0.336509	1.45388	-1.82488	0.834761	1.13809	1.04132	0.373404	-0.064708	-0.14513	0.388503	-0.109343	0	0	-0.371552	0.0786585	-0.179575	0.222239	-0.118436	0	0	-0.153335	0.00813647	-0.509452	0.115561	-0.225643	0.566648	0.162008	0.07462	0	0	-0.475231	-0.801863	0.00321135	0.970984	1.2731	0	0
0.17	0.27672	1.44899	-1.76275	0.834867	1.12675	1.03992	0.365595	-0.058686	-0.144712	0.402462	-0.10561	0	0	-0.387889	0.0696746	-0.189587	0.228016	-0.114124	0	0	-0.128329	0.00444216	-0.582868	0.159238	-0.18765	0.490614	0.0965743	0.221714	0	0	-0.561771	-0.765985	-0.0660953	0.963939	1.26602	0	0
0.18	0.243009	1.44892	-1.72637	0.834596	1.11506	1.03854	0.362988	-0.0534144	-0.142487	0.420785	-0.103003	0	0	-0.397927	0.0622333	-0.194338	0.23421	-0.111993	0	0	-0.112061	0.00222762	-0.623636	0.172502	-0.178979	0.529556	0.0849565	0.212367	0	0	-0.607138	-0.742901	-0.100808	0.961379	1.2641	0	0
0.19	0.236992	1.45368	-1.71603	0.833745	1.10325	1.03762	0.363847	-0.0491372	-0.137835	0.438847	-0.103339	0	0	-0.401146	0.0565711	-0.18945	0.240905	-0.112756	0	0	-0.120466	0.0106038	-0.598777	0.162134	-0.185918	0.527537	0.091732	0.199623	0	0	-0.577948	-0.751731	-0.0824726	0.967834	1.2714	0	0
0.2	0.222245	1.45718	-1.69854	0.832812	1.09113	1.03668	0.36159	-0.0428784	-0.132589	0.457336	-0.104157	0	0	-0.406097	0.0503216	-0.187691	0.247635	-0.113955	0	0	-0.123064	0.0156868	-0.587216	0.153919	-0.191056	0.525269	0.0997837	0.190249	0	0	-0.567318	-0.753873	-0.0736788	0.97338	1.27697	0	0
0.21	0.192142	1.45986	-1.66783	0.83194	1.07873	1.03542	0.358918	-0.0345837	-0.126118	0.479418	-0.105575	0	0	-0.41105	0.0423452	-0.193975	0.258409	-0.113719	0	0	-0.114158	0.016564	-0.599991	0.157214	-0.184134	0.429634	0.0933718	0.289455	0	0	-0.588515	-0.743921	-0.0836928	0.977067	1.27605	0	0
0.22	0.174522	1.46423	-1.64747	0.831004	1.06628	1.03444	0.359652	-0.0300385	-0.127096	0.498351	-0.117382	0	0	-0.4125	0.0348	-0.19392	0.27141	-0.115727	0	0	-0.110247	0.0202462	-0.601021	0.160788	-0.180191	0.413943	0.0789819	0.324535	0	0	-0.592399	-0.7349	-0.087925	0.978786	1.27364	0	0
0.23	0.110241	1.46278	-1.58453	0.830483	1.05358	1.03343	0.354728	-0.0222637	-0.129213	0.508621	-0.125493	0	0	-0.421488	0.0242151	-0.203739	0.283658	-0.117461	0	0	-0.0847779	0.0140335	-0.659781	0.177479	-0.169369	0.418197	0.0679696	0.349637	0	0	-0.662363	-0.701375	-0.122906	0.9749	1.25592	0	0
0.24	0.11733	1.49359	-1.58225	0.827879	1.04152	1.03379	0.380851	-0.0183793	-0.122537	0.504721	-0.146338	0	0	-0.324542	-0.00493655	-0.263387	0.455339	-0.101644	0	0	-0.201483	0.0761365	-0.314636	-0.0708475	-0.297631	0.25412	0.38604	0.123093	0	0	-0.21344	-0.825173	0.247127	0.984499	1.31368	0	0
0.25	0.0934665	1.48458	-1.56216	0.827486	1.02902	1.03528	0.365381	-0.0151392	-0.12434	0.508023	-0.162101	0	0	-0.400006	0.0128985	-0.174382	0.320799	-0.136724	0	0	-0.221287	0.0834996	-0.289368	-0.09317	-0.276243	0.0836447	0.402056	0.259775	0	0	-0.185612	-0.818778	0.277721	0.979672	1.31148	0	0
0.26	-0.0411448	1.49207	-1.42934	0.825971	1.01681	1.03459	0.371365	-0.000230601	-0.117106	0.523975	-0.174366	0	0	-0.323797	-0.0268724	-0.271875	0.50745	-0.119447	0	0	-0.212501	0.0954428	-0.285849	-0.0931841	-0.303309	0.2072	0.408848	0.136773	0	0	-0.19695	-0.806877	0.270411	0.976755	1.31265	0	0
0.27	-0.1241	1.49834	-1.35168	0.824562	1.0042	1.03472	0.3774	0.008924	-0.106676	0.545376	-0.175352	0	0	-0.300442	-0.0418165	-0.289313	0.566872	-0.123542	0	0	-0.205091	0.101705	-0.281609	-0.0935608	-0.285132	0.114628	0.395146	0.262873	0	0	-0.217653	-0.780825	0.231516	0.970877	1.33425	0	0
0.28	-0.0699122	1.49239	-1.41594	0.823137	0.991254	1.03676	0.366567	0.0100469	-0.0936866	0.562421	-0.177205	0	0	-0.375416	-0.0124231	-0.202631	0.42504	-0.161379	0	0	-0.23425	0.105443	-0.218688	-0.142169	-0.254037	-0.116169	0.442463	0.379755	0	0	-0.136673	-0.791646	0.346776	0.959199	1.29987	0	0
0.29	-0.2074	1.49109	-1.2842	0.821732	0.979438	1.03711	0.364852	0.0257393	-0.0805205	0.580672	-0.174626	0	0	-0.307514	-0.0503428	-0.280743	0.600236	-0.170263	0	0	-0.241901	0.119822	-0.197302	-0.15839	-0.258035	-0.129611	0.464342	0.364337	0	0	-0.12952	-0.782113	0.360211	0.957898	1.29331	0	0
